<?xml version="1.0" encoding="UTF-8" ?>
<!DOCTYPE svg PUBLIC "-//W3C//DTD SVG 1.1//EN" "http://www.w3.org/Graphics/SVG/1.1/DTD/svg11.dtd">
<svg width="382pt" height="148pt" viewBox="0 0 382 148" version="1.1" xmlns="http://www.w3.org/2000/svg">
<g id="#ffffffff">
<path fill="#ffffff" opacity="1.00" d=" M 300.85 107.32 C 303.54 106.92 306.25 106.98 308.95 107.25 C 308.31 108.66 307.66 110.06 307.04 111.47 C 305.08 111.98 303.10 112.35 301.09 112.53 C 300.65 111.91 299.77 110.67 299.32 110.04 C 299.71 109.36 300.47 108.00 300.85 107.32 Z" />
</g>
<g id="#ce5253ff">
<path fill="#ce5253" opacity="1.00" d=" M 179.90 21.49 C 183.14 14.86 191.99 12.00 198.51 15.43 C 201.34 16.73 203.26 19.29 205.11 21.70 C 208.90 21.69 212.97 21.39 216.37 23.40 C 223.05 26.79 226.49 35.98 222.67 42.66 C 220.94 46.02 217.85 48.35 214.54 50.01 C 214.39 57.28 214.50 64.55 214.49 71.82 C 199.88 71.86 185.26 72.03 170.65 71.72 C 170.65 64.27 170.76 56.81 170.58 49.35 C 160.97 46.56 158.04 32.86 165.01 26.01 C 168.68 21.68 174.66 21.45 179.90 21.49 M 183.93 23.88 C 185.63 25.62 187.28 27.40 188.90 29.20 C 187.56 30.04 186.22 30.88 184.88 31.70 C 182.32 28.99 179.27 25.88 175.19 26.27 C 168.87 26.24 163.69 33.51 166.36 39.40 C 167.67 43.31 171.67 45.28 175.49 45.92 C 175.54 49.88 175.55 53.84 175.55 57.80 C 186.84 57.82 198.13 57.92 209.41 57.75 C 209.39 53.81 209.40 49.88 209.46 45.95 C 214.46 45.29 219.80 41.53 219.50 36.00 C 219.79 29.86 213.47 25.32 207.65 26.29 C 207.36 29.35 206.80 32.38 206.19 35.39 C 205.67 35.49 204.62 35.69 204.10 35.78 C 203.18 35.25 202.26 34.71 201.34 34.19 C 201.60 31.17 202.07 28.09 201.44 25.09 C 199.76 20.72 194.67 18.21 190.16 19.39 C 187.48 19.85 185.74 22.08 183.93 23.88 M 175.56 63.12 C 175.56 64.61 175.56 66.10 175.57 67.60 C 186.84 67.61 198.11 67.68 209.38 67.55 C 209.39 66.09 209.40 64.62 209.42 63.16 C 198.13 63.02 186.85 63.09 175.56 63.12 Z" />
<path fill="#ce5253" opacity="1.00" d=" M 197.49 43.55 C 199.10 43.57 200.72 43.61 202.33 43.64 C 202.34 46.67 202.35 49.70 202.40 52.73 C 200.75 52.79 199.10 52.84 197.46 52.90 C 197.47 49.78 197.47 46.66 197.49 43.55 Z" />
<path fill="#ce5253" opacity="1.00" d=" M 183.37 43.60 C 184.42 43.60 186.53 43.59 187.58 43.59 C 187.62 46.68 187.63 49.77 187.64 52.85 C 186.56 52.85 184.41 52.84 183.34 52.83 C 183.31 49.75 183.33 46.67 183.37 43.60 Z" />
<path fill="#ce5253" opacity="1.00" d=" M 188.56 84.27 C 190.53 84.34 192.50 84.47 194.46 84.64 C 194.23 86.51 195.42 89.23 193.18 90.20 C 191.21 91.41 189.14 89.92 187.26 89.31 C 187.66 87.62 188.09 85.94 188.56 84.27 Z" />
<path fill="#ce5253" opacity="1.00" d=" M 282.54 84.23 C 284.48 84.18 286.43 84.14 288.38 84.10 C 288.48 94.92 288.37 105.74 288.39 116.56 C 286.45 116.53 284.52 116.50 282.58 116.47 C 282.48 105.72 282.58 94.98 282.54 84.23 Z" />
<path fill="#ce5253" opacity="1.00" d=" M 28.55 84.82 C 30.52 84.94 32.48 85.08 34.45 85.21 C 34.30 94.11 34.45 103.01 34.36 111.90 C 39.05 111.93 43.73 111.90 48.41 112.13 C 48.38 113.57 48.35 115.01 48.33 116.45 C 41.72 116.52 35.10 116.50 28.49 116.51 C 28.57 105.95 28.47 95.38 28.55 84.82 Z" />
<path fill="#ce5253" opacity="1.00" d=" M 171.62 88.38 C 173.52 88.34 175.41 88.32 177.31 88.31 C 177.31 90.22 177.31 92.13 177.33 94.04 C 179.33 94.14 181.34 94.24 183.35 94.36 C 183.36 95.80 183.37 97.25 183.39 98.69 C 181.37 98.89 179.34 99.08 177.31 99.26 C 177.31 103.27 177.31 107.28 177.48 111.29 C 179.40 111.47 181.33 111.64 183.26 111.80 C 183.27 113.35 183.28 114.89 183.30 116.44 C 179.31 116.63 174.14 117.14 171.94 112.93 C 170.89 108.50 171.62 103.83 171.48 99.30 C 170.15 99.12 168.83 98.93 167.51 98.73 C 167.50 97.27 167.50 95.81 167.49 94.35 C 168.83 94.14 170.16 93.92 171.50 93.71 C 171.53 91.93 171.58 90.16 171.62 88.38 Z" />
<path fill="#ce5253" opacity="1.00" d=" M 202.60 88.37 C 204.51 88.35 206.42 88.34 208.33 88.37 C 208.28 90.15 208.24 91.94 208.18 93.72 C 210.21 93.95 212.23 94.18 214.26 94.42 C 214.26 95.83 214.27 97.24 214.28 98.65 C 212.10 98.92 209.91 99.12 207.72 99.36 C 207.75 103.10 207.76 106.85 207.72 110.59 C 209.67 111.15 211.65 111.60 213.65 111.98 C 213.63 113.51 213.62 115.04 213.60 116.57 C 209.75 116.58 204.67 116.90 202.78 112.69 C 201.92 108.31 202.44 103.79 202.40 99.35 C 201.09 99.17 199.79 99.00 198.49 98.82 C 198.48 97.32 198.49 95.81 198.48 94.31 C 199.80 94.11 201.12 93.89 202.44 93.67 C 202.48 91.90 202.54 90.14 202.60 88.37 Z" />
<path fill="#ce5253" opacity="1.00" d=" M 322.54 88.32 C 324.43 88.34 326.33 88.37 328.22 88.42 C 328.23 90.33 328.23 92.25 328.25 94.16 C 330.07 94.15 331.89 94.14 333.71 94.13 C 333.68 95.76 333.65 97.39 333.63 99.02 C 331.64 99.09 329.66 99.17 327.69 99.26 C 327.71 103.04 327.72 106.82 327.67 110.60 C 329.63 111.14 331.61 111.63 333.63 111.95 C 333.60 113.49 333.57 115.02 333.55 116.56 C 329.77 116.49 324.55 116.97 322.67 112.82 C 321.89 108.38 322.40 103.83 322.38 99.35 C 321.02 99.16 319.66 98.97 318.31 98.79 C 318.34 97.32 318.38 95.86 318.41 94.40 C 319.74 94.15 321.08 93.88 322.41 93.63 C 322.44 91.86 322.49 90.09 322.54 88.32 Z" />
<path fill="#ce5253" opacity="1.00" d=" M 54.75 96.77 C 59.19 92.35 67.57 92.44 71.59 97.42 C 73.89 99.89 73.96 103.43 74.59 106.56 C 68.90 106.91 63.21 106.64 57.53 106.74 C 57.49 107.69 57.45 108.65 57.41 109.60 C 60.28 112.90 65.55 113.21 68.22 109.48 C 70.12 109.50 72.02 109.57 73.91 109.67 C 72.20 112.14 70.58 115.05 67.57 116.08 C 62.17 118.65 55.01 116.18 52.40 110.80 C 50.61 106.23 50.99 100.29 54.75 96.77 M 56.67 102.57 C 60.77 103.38 65.00 103.38 69.08 102.41 C 67.45 100.53 65.79 97.99 62.91 98.40 C 59.99 97.99 58.36 100.72 56.67 102.57 Z" />
<path fill="#ce5253" opacity="1.00" d=" M 294.00 101.59 C 295.09 92.18 310.62 90.53 314.17 99.01 C 315.12 104.79 314.43 110.70 314.59 116.53 C 312.92 116.51 311.26 116.50 309.60 116.49 C 309.55 115.69 309.45 114.08 309.40 113.28 C 305.50 118.54 296.58 118.35 293.50 112.35 C 293.49 111.44 293.47 109.63 293.46 108.72 C 294.71 106.93 295.85 104.75 298.11 104.11 C 301.53 102.97 305.20 103.48 308.74 103.34 C 308.61 102.05 308.49 100.75 308.37 99.46 C 305.32 98.06 301.21 97.79 299.62 101.41 C 297.74 101.52 295.87 101.57 294.00 101.59 M 300.85 107.32 C 300.47 108.00 299.71 109.36 299.32 110.04 C 299.77 110.67 300.65 111.91 301.09 112.53 C 303.10 112.35 305.08 111.98 307.04 111.47 C 307.66 110.06 308.31 108.66 308.95 107.25 C 306.25 106.98 303.54 106.92 300.85 107.32 Z" />
<path fill="#ce5253" opacity="1.00" d=" M 78.31 98.77 C 81.31 93.81 88.05 92.01 93.09 94.94 C 95.49 95.84 96.03 98.50 96.88 100.61 C 95.20 100.60 93.51 100.58 91.82 100.52 C 90.10 98.07 87.25 98.03 84.56 98.47 C 84.49 99.44 84.41 100.41 84.33 101.39 C 88.87 103.26 94.48 103.39 97.71 107.59 C 97.49 110.25 97.37 113.38 94.96 115.09 C 89.85 118.64 82.15 117.37 78.39 112.40 C 78.35 111.37 78.31 110.35 78.27 109.34 C 79.94 109.34 81.62 109.37 83.29 109.37 C 83.60 110.09 83.91 110.81 84.22 111.53 C 86.63 112.50 89.15 112.59 91.58 111.66 C 91.57 110.63 91.55 109.59 91.53 108.56 C 87.87 107.17 83.69 106.87 80.45 104.57 C 78.46 103.29 78.60 100.83 78.31 98.77 Z" />
<path fill="#ce5253" opacity="1.00" d=" M 113.37 94.21 C 115.10 94.19 116.82 94.18 118.55 94.18 C 118.59 95.04 118.63 95.90 118.67 96.75 C 121.93 94.63 125.88 92.46 129.84 94.15 C 137.60 96.41 139.96 107.19 134.94 113.12 C 131.26 117.77 123.48 118.39 119.31 114.02 C 119.31 118.11 119.28 122.21 119.23 126.31 C 117.29 126.36 115.36 126.40 113.42 126.43 C 113.35 115.69 113.47 104.95 113.37 94.21 M 119.41 101.71 C 119.39 103.94 119.13 106.21 119.62 108.40 C 121.28 112.64 127.92 113.18 130.46 109.52 C 133.06 105.94 131.44 99.98 126.91 98.90 C 123.97 97.77 121.54 100.07 119.41 101.71 Z" />
<path fill="#ce5253" opacity="1.00" d=" M 144.94 96.96 C 149.73 92.28 158.89 92.36 162.80 98.13 C 164.74 100.56 164.54 103.77 164.68 106.69 C 158.82 106.92 152.90 106.21 147.10 107.38 C 148.02 108.78 148.96 110.17 149.89 111.57 C 153.11 112.73 156.37 112.12 158.71 109.55 C 160.49 109.51 162.28 109.50 164.06 109.52 C 162.51 113.68 158.71 117.17 154.05 116.94 C 149.27 117.50 144.44 114.66 142.72 110.16 C 141.77 105.76 141.73 100.49 144.94 96.96 M 147.55 102.88 C 151.37 103.21 155.20 103.18 159.03 103.06 C 158.31 100.36 156.10 97.94 153.08 98.38 C 150.26 98.27 148.61 100.59 147.55 102.88 Z" />
<path fill="#ce5253" opacity="1.00" d=" M 188.35 94.14 C 190.17 94.14 192.00 94.17 193.83 94.18 C 194.42 101.61 194.53 109.12 193.56 116.52 C 191.83 116.51 190.11 116.51 188.39 116.51 C 188.34 109.05 188.40 101.59 188.35 94.14 Z" />
<path fill="#ce5253" opacity="1.00" d=" M 221.89 94.94 C 227.30 91.86 235.53 93.91 237.02 100.48 C 235.10 100.56 233.18 100.61 231.26 100.65 C 230.99 100.08 230.46 98.95 230.20 98.38 C 228.29 98.37 226.39 98.38 224.48 98.44 C 224.43 99.44 224.38 100.44 224.34 101.43 C 228.86 103.02 233.90 103.65 237.61 106.97 C 237.56 110.02 237.43 113.63 234.51 115.42 C 229.39 118.52 222.18 117.23 218.39 112.57 C 218.35 111.45 218.30 110.34 218.26 109.23 C 219.87 109.32 221.50 109.45 223.12 109.56 C 224.57 110.76 225.83 112.76 227.98 112.56 C 230.12 112.58 232.38 111.27 231.63 108.81 C 227.56 106.48 221.77 107.06 218.90 102.87 C 217.65 100.01 218.95 96.19 221.89 94.94 Z" />
<path fill="#ce5253" opacity="1.00" d=" M 253.40 94.19 C 255.09 94.19 256.78 94.18 258.48 94.17 C 258.52 94.82 258.60 96.12 258.63 96.77 C 262.33 93.93 267.58 92.30 271.81 95.01 C 278.60 98.61 279.47 108.90 274.05 114.05 C 270.25 118.10 263.29 117.80 259.31 114.15 C 259.32 118.21 259.28 122.28 259.31 126.34 C 257.33 126.39 255.36 126.42 253.40 126.45 C 253.37 115.70 253.34 104.94 253.40 94.19 M 259.37 101.59 C 259.57 104.41 258.50 107.90 260.81 110.11 C 263.29 112.92 268.41 112.48 270.50 109.39 C 272.07 107.39 271.34 104.65 271.55 102.31 C 269.92 100.88 268.40 98.96 266.09 98.77 C 263.44 98.27 261.38 100.24 259.37 101.59 Z" />
<path fill="#ce5253" opacity="1.00" d=" M 339.69 95.84 C 343.71 93.82 348.82 92.41 352.93 94.96 C 355.10 96.10 355.88 98.49 356.97 100.50 C 355.09 100.54 353.22 100.55 351.35 100.47 C 350.00 97.51 346.72 98.20 344.17 98.74 C 344.21 99.42 344.29 100.77 344.33 101.45 C 348.91 103.13 354.37 103.46 357.64 107.55 C 357.30 109.91 357.43 112.68 355.58 114.47 C 352.65 117.49 347.96 117.17 344.15 116.60 C 340.55 115.88 338.48 112.54 337.09 109.45 C 338.98 109.42 340.88 109.43 342.78 109.48 C 343.85 110.43 344.91 111.42 346.11 112.21 C 347.92 113.08 349.78 111.92 351.55 111.51 C 351.53 110.52 351.51 109.54 351.50 108.55 C 346.84 106.91 341.31 106.54 338.08 102.32 C 338.55 100.14 339.10 97.99 339.69 95.84 Z" />
</g>
</svg>
